%TF.GenerationSoftware,KiCad,Pcbnew,(5.1.5)-3*%
%TF.CreationDate,2020-08-07T14:40:55+02:00*%
%TF.ProjectId,bmp22,626d7032-322e-46b6-9963-61645f706362,rev?*%
%TF.SameCoordinates,Original*%
%TF.FileFunction,Paste,Bot*%
%TF.FilePolarity,Positive*%
%FSLAX46Y46*%
G04 Gerber Fmt 4.6, Leading zero omitted, Abs format (unit mm)*
G04 Created by KiCad (PCBNEW (5.1.5)-3) date 2020-08-07 14:40:55*
%MOMM*%
%LPD*%
G04 APERTURE LIST*
%ADD10C,0.100000*%
G04 APERTURE END LIST*
D10*
%TO.C,J202*%
G36*
X169374504Y-134601204D02*
G01*
X169398773Y-134604804D01*
X169422571Y-134610765D01*
X169445671Y-134619030D01*
X169467849Y-134629520D01*
X169488893Y-134642133D01*
X169508598Y-134656747D01*
X169526777Y-134673223D01*
X169543253Y-134691402D01*
X169557867Y-134711107D01*
X169570480Y-134732151D01*
X169580970Y-134754329D01*
X169589235Y-134777429D01*
X169595196Y-134801227D01*
X169598796Y-134825496D01*
X169600000Y-134850000D01*
X169600000Y-135850000D01*
X169598796Y-135874504D01*
X169595196Y-135898773D01*
X169589235Y-135922571D01*
X169580970Y-135945671D01*
X169570480Y-135967849D01*
X169557867Y-135988893D01*
X169543253Y-136008598D01*
X169526777Y-136026777D01*
X169508598Y-136043253D01*
X169488893Y-136057867D01*
X169467849Y-136070480D01*
X169445671Y-136080970D01*
X169422571Y-136089235D01*
X169398773Y-136095196D01*
X169374504Y-136098796D01*
X169350000Y-136100000D01*
X166450000Y-136100000D01*
X166425496Y-136098796D01*
X166401227Y-136095196D01*
X166377429Y-136089235D01*
X166354329Y-136080970D01*
X166332151Y-136070480D01*
X166311107Y-136057867D01*
X166291402Y-136043253D01*
X166273223Y-136026777D01*
X166256747Y-136008598D01*
X166242133Y-135988893D01*
X166229520Y-135967849D01*
X166219030Y-135945671D01*
X166210765Y-135922571D01*
X166204804Y-135898773D01*
X166201204Y-135874504D01*
X166200000Y-135850000D01*
X166200000Y-134850000D01*
X166201204Y-134825496D01*
X166204804Y-134801227D01*
X166210765Y-134777429D01*
X166219030Y-134754329D01*
X166229520Y-134732151D01*
X166242133Y-134711107D01*
X166256747Y-134691402D01*
X166273223Y-134673223D01*
X166291402Y-134656747D01*
X166311107Y-134642133D01*
X166332151Y-134629520D01*
X166354329Y-134619030D01*
X166377429Y-134610765D01*
X166401227Y-134604804D01*
X166425496Y-134601204D01*
X166450000Y-134600000D01*
X169350000Y-134600000D01*
X169374504Y-134601204D01*
G37*
G36*
X169374504Y-123901204D02*
G01*
X169398773Y-123904804D01*
X169422571Y-123910765D01*
X169445671Y-123919030D01*
X169467849Y-123929520D01*
X169488893Y-123942133D01*
X169508598Y-123956747D01*
X169526777Y-123973223D01*
X169543253Y-123991402D01*
X169557867Y-124011107D01*
X169570480Y-124032151D01*
X169580970Y-124054329D01*
X169589235Y-124077429D01*
X169595196Y-124101227D01*
X169598796Y-124125496D01*
X169600000Y-124150000D01*
X169600000Y-125150000D01*
X169598796Y-125174504D01*
X169595196Y-125198773D01*
X169589235Y-125222571D01*
X169580970Y-125245671D01*
X169570480Y-125267849D01*
X169557867Y-125288893D01*
X169543253Y-125308598D01*
X169526777Y-125326777D01*
X169508598Y-125343253D01*
X169488893Y-125357867D01*
X169467849Y-125370480D01*
X169445671Y-125380970D01*
X169422571Y-125389235D01*
X169398773Y-125395196D01*
X169374504Y-125398796D01*
X169350000Y-125400000D01*
X166450000Y-125400000D01*
X166425496Y-125398796D01*
X166401227Y-125395196D01*
X166377429Y-125389235D01*
X166354329Y-125380970D01*
X166332151Y-125370480D01*
X166311107Y-125357867D01*
X166291402Y-125343253D01*
X166273223Y-125326777D01*
X166256747Y-125308598D01*
X166242133Y-125288893D01*
X166229520Y-125267849D01*
X166219030Y-125245671D01*
X166210765Y-125222571D01*
X166204804Y-125198773D01*
X166201204Y-125174504D01*
X166200000Y-125150000D01*
X166200000Y-124150000D01*
X166201204Y-124125496D01*
X166204804Y-124101227D01*
X166210765Y-124077429D01*
X166219030Y-124054329D01*
X166229520Y-124032151D01*
X166242133Y-124011107D01*
X166256747Y-123991402D01*
X166273223Y-123973223D01*
X166291402Y-123956747D01*
X166311107Y-123942133D01*
X166332151Y-123929520D01*
X166354329Y-123919030D01*
X166377429Y-123910765D01*
X166401227Y-123904804D01*
X166425496Y-123901204D01*
X166450000Y-123900000D01*
X169350000Y-123900000D01*
X169374504Y-123901204D01*
G37*
G36*
X163674504Y-132501204D02*
G01*
X163698773Y-132504804D01*
X163722571Y-132510765D01*
X163745671Y-132519030D01*
X163767849Y-132529520D01*
X163788893Y-132542133D01*
X163808598Y-132556747D01*
X163826777Y-132573223D01*
X163843253Y-132591402D01*
X163857867Y-132611107D01*
X163870480Y-132632151D01*
X163880970Y-132654329D01*
X163889235Y-132677429D01*
X163895196Y-132701227D01*
X163898796Y-132725496D01*
X163900000Y-132750000D01*
X163900000Y-133250000D01*
X163898796Y-133274504D01*
X163895196Y-133298773D01*
X163889235Y-133322571D01*
X163880970Y-133345671D01*
X163870480Y-133367849D01*
X163857867Y-133388893D01*
X163843253Y-133408598D01*
X163826777Y-133426777D01*
X163808598Y-133443253D01*
X163788893Y-133457867D01*
X163767849Y-133470480D01*
X163745671Y-133480970D01*
X163722571Y-133489235D01*
X163698773Y-133495196D01*
X163674504Y-133498796D01*
X163650000Y-133500000D01*
X160650000Y-133500000D01*
X160625496Y-133498796D01*
X160601227Y-133495196D01*
X160577429Y-133489235D01*
X160554329Y-133480970D01*
X160532151Y-133470480D01*
X160511107Y-133457867D01*
X160491402Y-133443253D01*
X160473223Y-133426777D01*
X160456747Y-133408598D01*
X160442133Y-133388893D01*
X160429520Y-133367849D01*
X160419030Y-133345671D01*
X160410765Y-133322571D01*
X160404804Y-133298773D01*
X160401204Y-133274504D01*
X160400000Y-133250000D01*
X160400000Y-132750000D01*
X160401204Y-132725496D01*
X160404804Y-132701227D01*
X160410765Y-132677429D01*
X160419030Y-132654329D01*
X160429520Y-132632151D01*
X160442133Y-132611107D01*
X160456747Y-132591402D01*
X160473223Y-132573223D01*
X160491402Y-132556747D01*
X160511107Y-132542133D01*
X160532151Y-132529520D01*
X160554329Y-132519030D01*
X160577429Y-132510765D01*
X160601227Y-132504804D01*
X160625496Y-132501204D01*
X160650000Y-132500000D01*
X163650000Y-132500000D01*
X163674504Y-132501204D01*
G37*
G36*
X163674504Y-130501204D02*
G01*
X163698773Y-130504804D01*
X163722571Y-130510765D01*
X163745671Y-130519030D01*
X163767849Y-130529520D01*
X163788893Y-130542133D01*
X163808598Y-130556747D01*
X163826777Y-130573223D01*
X163843253Y-130591402D01*
X163857867Y-130611107D01*
X163870480Y-130632151D01*
X163880970Y-130654329D01*
X163889235Y-130677429D01*
X163895196Y-130701227D01*
X163898796Y-130725496D01*
X163900000Y-130750000D01*
X163900000Y-131250000D01*
X163898796Y-131274504D01*
X163895196Y-131298773D01*
X163889235Y-131322571D01*
X163880970Y-131345671D01*
X163870480Y-131367849D01*
X163857867Y-131388893D01*
X163843253Y-131408598D01*
X163826777Y-131426777D01*
X163808598Y-131443253D01*
X163788893Y-131457867D01*
X163767849Y-131470480D01*
X163745671Y-131480970D01*
X163722571Y-131489235D01*
X163698773Y-131495196D01*
X163674504Y-131498796D01*
X163650000Y-131500000D01*
X160650000Y-131500000D01*
X160625496Y-131498796D01*
X160601227Y-131495196D01*
X160577429Y-131489235D01*
X160554329Y-131480970D01*
X160532151Y-131470480D01*
X160511107Y-131457867D01*
X160491402Y-131443253D01*
X160473223Y-131426777D01*
X160456747Y-131408598D01*
X160442133Y-131388893D01*
X160429520Y-131367849D01*
X160419030Y-131345671D01*
X160410765Y-131322571D01*
X160404804Y-131298773D01*
X160401204Y-131274504D01*
X160400000Y-131250000D01*
X160400000Y-130750000D01*
X160401204Y-130725496D01*
X160404804Y-130701227D01*
X160410765Y-130677429D01*
X160419030Y-130654329D01*
X160429520Y-130632151D01*
X160442133Y-130611107D01*
X160456747Y-130591402D01*
X160473223Y-130573223D01*
X160491402Y-130556747D01*
X160511107Y-130542133D01*
X160532151Y-130529520D01*
X160554329Y-130519030D01*
X160577429Y-130510765D01*
X160601227Y-130504804D01*
X160625496Y-130501204D01*
X160650000Y-130500000D01*
X163650000Y-130500000D01*
X163674504Y-130501204D01*
G37*
G36*
X163674504Y-128501204D02*
G01*
X163698773Y-128504804D01*
X163722571Y-128510765D01*
X163745671Y-128519030D01*
X163767849Y-128529520D01*
X163788893Y-128542133D01*
X163808598Y-128556747D01*
X163826777Y-128573223D01*
X163843253Y-128591402D01*
X163857867Y-128611107D01*
X163870480Y-128632151D01*
X163880970Y-128654329D01*
X163889235Y-128677429D01*
X163895196Y-128701227D01*
X163898796Y-128725496D01*
X163900000Y-128750000D01*
X163900000Y-129250000D01*
X163898796Y-129274504D01*
X163895196Y-129298773D01*
X163889235Y-129322571D01*
X163880970Y-129345671D01*
X163870480Y-129367849D01*
X163857867Y-129388893D01*
X163843253Y-129408598D01*
X163826777Y-129426777D01*
X163808598Y-129443253D01*
X163788893Y-129457867D01*
X163767849Y-129470480D01*
X163745671Y-129480970D01*
X163722571Y-129489235D01*
X163698773Y-129495196D01*
X163674504Y-129498796D01*
X163650000Y-129500000D01*
X160650000Y-129500000D01*
X160625496Y-129498796D01*
X160601227Y-129495196D01*
X160577429Y-129489235D01*
X160554329Y-129480970D01*
X160532151Y-129470480D01*
X160511107Y-129457867D01*
X160491402Y-129443253D01*
X160473223Y-129426777D01*
X160456747Y-129408598D01*
X160442133Y-129388893D01*
X160429520Y-129367849D01*
X160419030Y-129345671D01*
X160410765Y-129322571D01*
X160404804Y-129298773D01*
X160401204Y-129274504D01*
X160400000Y-129250000D01*
X160400000Y-128750000D01*
X160401204Y-128725496D01*
X160404804Y-128701227D01*
X160410765Y-128677429D01*
X160419030Y-128654329D01*
X160429520Y-128632151D01*
X160442133Y-128611107D01*
X160456747Y-128591402D01*
X160473223Y-128573223D01*
X160491402Y-128556747D01*
X160511107Y-128542133D01*
X160532151Y-128529520D01*
X160554329Y-128519030D01*
X160577429Y-128510765D01*
X160601227Y-128504804D01*
X160625496Y-128501204D01*
X160650000Y-128500000D01*
X163650000Y-128500000D01*
X163674504Y-128501204D01*
G37*
G36*
X163674504Y-126501204D02*
G01*
X163698773Y-126504804D01*
X163722571Y-126510765D01*
X163745671Y-126519030D01*
X163767849Y-126529520D01*
X163788893Y-126542133D01*
X163808598Y-126556747D01*
X163826777Y-126573223D01*
X163843253Y-126591402D01*
X163857867Y-126611107D01*
X163870480Y-126632151D01*
X163880970Y-126654329D01*
X163889235Y-126677429D01*
X163895196Y-126701227D01*
X163898796Y-126725496D01*
X163900000Y-126750000D01*
X163900000Y-127250000D01*
X163898796Y-127274504D01*
X163895196Y-127298773D01*
X163889235Y-127322571D01*
X163880970Y-127345671D01*
X163870480Y-127367849D01*
X163857867Y-127388893D01*
X163843253Y-127408598D01*
X163826777Y-127426777D01*
X163808598Y-127443253D01*
X163788893Y-127457867D01*
X163767849Y-127470480D01*
X163745671Y-127480970D01*
X163722571Y-127489235D01*
X163698773Y-127495196D01*
X163674504Y-127498796D01*
X163650000Y-127500000D01*
X160650000Y-127500000D01*
X160625496Y-127498796D01*
X160601227Y-127495196D01*
X160577429Y-127489235D01*
X160554329Y-127480970D01*
X160532151Y-127470480D01*
X160511107Y-127457867D01*
X160491402Y-127443253D01*
X160473223Y-127426777D01*
X160456747Y-127408598D01*
X160442133Y-127388893D01*
X160429520Y-127367849D01*
X160419030Y-127345671D01*
X160410765Y-127322571D01*
X160404804Y-127298773D01*
X160401204Y-127274504D01*
X160400000Y-127250000D01*
X160400000Y-126750000D01*
X160401204Y-126725496D01*
X160404804Y-126701227D01*
X160410765Y-126677429D01*
X160419030Y-126654329D01*
X160429520Y-126632151D01*
X160442133Y-126611107D01*
X160456747Y-126591402D01*
X160473223Y-126573223D01*
X160491402Y-126556747D01*
X160511107Y-126542133D01*
X160532151Y-126529520D01*
X160554329Y-126519030D01*
X160577429Y-126510765D01*
X160601227Y-126504804D01*
X160625496Y-126501204D01*
X160650000Y-126500000D01*
X163650000Y-126500000D01*
X163674504Y-126501204D01*
G37*
%TD*%
M02*
